<svg width="20" height="20" viewBox="0 0 20 20" fill="none" xmlns="http://www.w3.org/2000/svg">
<path fill-rule="evenodd" clip-rule="evenodd" d="M15.5569 19.9948C15.3966 19.9955 15.2385 19.9558 15.0959 19.8791L9.98497 17.0699L4.87406 19.8791C4.53547 20.066 4.12506 20.0343 3.81623 19.7972C3.5074 19.5602 3.35405 19.1593 3.42096 18.7638L4.4231 12.8403L0.294284 8.63181C0.0317796 8.35678 -0.064598 7.95204 0.0437489 7.57967C0.162246 7.19819 0.477097 6.92069 0.855482 6.86422L6.56767 5.99096L9.08304 0.593518C9.25049 0.230543 9.60083 0 9.98497 0C10.3691 0 10.7194 0.230543 10.8869 0.593518L13.4323 5.98043L19.1445 6.8537C19.5229 6.91017 19.8378 7.18767 19.9563 7.56915C20.0646 7.94152 19.9682 8.34626 19.7057 8.62129L15.5769 12.8298L16.579 18.7533C16.6521 19.1561 16.4956 19.5667 16.1782 19.8054C15.9967 19.939 15.7782 20.0056 15.5569 19.9948Z" fill="#FE9B3F"/>
</svg>
